<?xml version="1.0" encoding="utf-8"?>
<!-- Generator: Adobe Illustrator 25.2.1, SVG Export Plug-In . SVG Version: 6.00 Build 0)  -->
<svg version="1.1" xmlns="http://www.w3.org/2000/svg" xmlns:xlink="http://www.w3.org/1999/xlink" x="0px" y="0px"
	 viewBox="0 0 24 24" style="enable-background:new 0 0 24 24;" xml:space="preserve">
<style type="text/css">
	.st0{display:none;}
	.st1{display:inline;}
	.st2{fill:#056DE8;}
	.st3{fill:#056DE8;stroke:#000000;stroke-miterlimit:10;}
	.st4{fill:none;stroke:#000000;stroke-miterlimit:10;}
</style>
<g id="图层_1" class="st0">
	<g class="st1">
		<path class="st2" d="M22.74,3.68h-9.22v15.98h2.26l0.3,1.92l3.05-1.92h3.6V3.68z M18.84,17.66l-1.79,1.13l-0.18-1.13h-1.29v-12
			h5.07v12L18.84,17.66L18.84,17.66z M11.82,10.87H8.47c0-0.35,0.02-0.71,0.03-1.09V5.66h3.82V4.69c0-0.27-0.11-0.53-0.3-0.72
			c-0.19-0.19-0.45-0.3-0.72-0.3H5.33c0.02-0.07,0.04-0.13,0.06-0.19C5.59,2.88,6.25,1,6.25,1C5.61,0.99,4.98,1.17,4.45,1.52
			c-0.43,0.3-0.68,0.51-1.03,1.46c-0.4,1.09-0.75,2.14-0.98,2.76c-0.36,1-1.23,2.76-1.23,2.76c0.65-0.01,1.3-0.17,1.89-0.46
			C3.93,7.6,4.35,6.92,4.63,5.89L4.7,5.66h1.75v4.12c0,0.37-0.03,0.73-0.05,1.09H3.31c-0.53,0-1.04,0.21-1.42,0.58
			c-0.37,0.37-0.59,0.88-0.59,1.4h4.88c-0.1,0.93-0.29,1.84-0.58,2.73c-0.51,1.44-1.27,2.78-2.25,3.95
			C2.62,20.32,1.83,21.07,1,21.76c0,0,2.34,0.88,4.06-0.71c1.04-0.97,1.97-2.85,2.42-4.29c0.4-1.27,0.68-2.58,0.84-3.91h4.46v-1.03
			c0-0.25-0.1-0.5-0.28-0.67C12.32,10.97,12.07,10.87,11.82,10.87z"/>
		<path class="st2" d="M9.43,14.97L7.7,16.09l3.77,5.58c0.26-0.52,0.43-1.08,0.5-1.66c0.13-0.55,0.05-1.12-0.21-1.62L9.43,14.97z
			 M39.5,11.62v-7c3.13-0.15,5.98-0.3,7.06-0.36l0.64-0.04c0.29-0.3,0.66-1.79,0.52-2.26c-0.05-0.19-0.16-0.5-0.48-0.42
			c-1.05,0.25-2.12,0.43-3.2,0.54c-2.07,0.24-2.97,0.3-5.84,0.51c-5.03,0.36-9.51,0.54-9.51,0.54c0,0.52,0.21,1.02,0.59,1.37
			c0.38,0.36,0.89,0.55,1.41,0.53c1.7-0.07,4.19-0.19,6.73-0.31v6.89h-9.56c0,0.53,0.21,1.03,0.59,1.4
			c0.38,0.37,0.89,0.58,1.42,0.58h7.56v5.29c0,0.66-0.35,0.89-0.92,0.91h-2.93c0.12,0.43,0.34,0.82,0.63,1.16
			c0.29,0.34,0.65,0.61,1.05,0.8c0.65,0.22,1.34,0.29,2.03,0.21c1.02-0.05,2.22-0.62,2.22-2.67V13.6h8.44c0.26,0,0.5-0.1,0.68-0.28
			c0.18-0.18,0.28-0.42,0.28-0.67v-1.03C48.89,11.62,39.5,11.62,39.5,11.62z"/>
		<path class="st2" d="M32.88,6.89c-0.27-0.37-0.67-0.62-1.13-0.69c-0.45-0.07-0.92,0.04-1.29,0.3l-0.28,0.2l3.18,4.38l1.68-1.21
			L32.88,6.89L32.88,6.89z M43.91,6.75l-2.34,3.07l1.68,1.24l3.38-4.43l-0.28-0.21c-0.37-0.28-0.83-0.4-1.29-0.34
			C44.6,6.14,44.19,6.38,43.91,6.75L43.91,6.75z"/>
	</g>
</g>
<g id="图层_2">
	<polyline class="st3" points="4.91,1.97 3.88,4.75 2.86,7.52 	"/>
	<line class="st4" x1="3.88" y1="4.75" x2="11.38" y2="4.75"/>
	<line class="st4" x1="2.41" y1="12" x2="11.9" y2="12"/>
	<path class="st4" d="M7.57,4.93c0.06,1.02,0.33,6.74-1.01,10.9c-0.68,2.11-1.58,3.21-1.9,3.59c-0.8,0.93-1.65,1.53-2.25,1.88"/>
	<line class="st4" x1="8.62" y1="15.5" x2="11.38" y2="19.9"/>
	<polygon class="st4" points="14.51,4.75 14.51,18.79 16.33,18.79 16.57,20.5 19.17,18.79 21.65,18.79 21.65,4.75 	"/>
</g>
</svg>
